<svg xmlns="http://www.w3.org/2000/svg" width="11" height="10" fill="none" viewBox="0 0 11 10">
  <path fill="#646464" d="M2.44 3.315H.162v6.672H2.44V3.315ZM2.057.202a1.439 1.439 0 0 0-1.24-.11c-.162.06-.308.15-.43.262A1.185 1.185 0 0 0 .1.745 1.103 1.103 0 0 0 .228 1.87c.147.197.353.35.595.44.242.089.507.112.763.065.256-.048.49-.162.674-.33.184-.168.31-.382.36-.614.05-.233.024-.474-.077-.692-.1-.219-.27-.406-.486-.537Zm4.04 3.113H3.902L3.894 10h2.278V6.699c0-.869.183-1.71 1.367-1.71 1.185 0 1.185 1 1.185 1.772v3.225h2.278v-3.66c0-1.798-.463-3.177-2.741-3.177a2.6 2.6 0 0 0-1.246.266c-.381.19-.699.47-.918.81v-.91Z"/>
</svg>
