<svg xmlns="http://www.w3.org/2000/svg" width="11" height="9" fill="none" viewBox="0 0 11 9">
  <path fill="#646464" d="M10.877 1.004c-.398.185-.901.36-1.352.417C9.983 1.135 10.71.539 10.877 0c-.429.265-1.204.548-1.71.65C8.763.2 8.187 0 7.55 0 6.323 0 5.468 1.092 5.468 2.368v.948C3.665 3.316 1.907 1.872.813.474a2.369 2.369 0 0 0-.3 1.164c0 .861.752 1.736 1.349 2.151-.364-.011-1.053-.303-1.353-.473v.027c0 1.121.75 1.882 1.764 2.094-.185.054-.411.247-1.28.247.282.917 1.7 1.401 2.672 1.421-.76.62-2.115.948-3.156.948-.18 0-.277.01-.45-.011C1.04 8.695 2.412 9 3.665 9c4.082 0 6.31-3.277 6.31-6.333 0-.1-.003-.437-.008-.535.437-.323.613-.662.91-1.128"/>
</svg>
